<?xml version="1.0" encoding="UTF-8"?>
<svg width="164px" height="180px" viewBox="0 0 164 180" version="1.1" xmlns="http://www.w3.org/2000/svg" xmlns:xlink="http://www.w3.org/1999/xlink">
    <title>logo_mark_blue</title>
    <g id="Page-1" stroke="none" stroke-width="1" fill="none" fill-rule="evenodd">
        <g id="logo_asset" transform="translate(-318.000000, -223.000000)">
            <g id="logo_mark_blue" transform="translate(318.000000, 223.000000)">
                <rect id="space" stroke-opacity="0" stroke="#A9A9A9" x="0.5" y="0.5" width="163" height="179"></rect>
                <g id="mark_all" transform="translate(16.000000, 16.000000)" fill-rule="nonzero">
                    <g id="mark" transform="translate(10.000000, 0.000000)">
                        <rect id="Rectangle" fill="#198FCC" x="0" y="0" width="112" height="112" rx="56"></rect>
                        <path d="M25.449375,34.015625 L25.449375,77.765625 C25.449375,91.23625 40.035625,99.640625 51.699375,92.920625 L89.586875,71.045625 C101.255,64.3125 101.255,47.473125 89.586875,40.735625 L51.699375,18.860625 C40.035625,12.123125 25.449375,20.5625 25.449375,34.015625 Z" id="Path" fill="#FFFFFF" opacity="0.8"></path>
                        <path d="M86.550625,34.23875 L86.550625,77.98875 C86.550625,91.46375 71.964375,99.86375 60.300625,93.148125 L22.413125,71.273125 C10.745,64.535625 10.745,47.69625 22.413125,40.963125 L60.300625,19.088125 C71.964375,12.34625 86.550625,20.768125 86.550625,34.23875 Z" id="Path" fill="#FFFFFF" opacity="0.8"></path>
                        <circle id="Oval" fill="#198FCC" cx="56.153125" cy="52.31625" r="6.024375"></circle>
                        <polygon id="Path" fill="#198FCC" points="56.14875 54.726875 50.93375 63.765625 61.368125 63.765625"></polygon>
                    </g>
                    <path d="M8.5947822,143 C12.0166572,143 13.7275947,141.535156 13.7275947,138.605469 C13.7275947,136.332031 12.5479072,135.03125 10.1885322,134.703125 L10.1885322,134.703125 L9.8838447,134.65625 L10.1416572,134.574219 C11.9541572,133.988281 12.8604072,132.761719 12.8604072,130.894531 C12.8604072,128.300781 11.1416572,127.003906 7.7041572,127.003906 L7.7041572,127.003906 L2.8291572,127.003906 L2.8291572,143 L8.5947822,143 Z M7.4932197,133.835938 L4.9385322,133.824219 L4.9385322,128.984375 L7.24712595,128.984375 C9.62212595,128.984375 10.8096259,129.785156 10.8096259,131.386719 C10.8096259,133.019531 9.7041572,133.835938 7.4932197,133.835938 L7.4932197,133.835938 Z M7.9854072,141.019531 L4.9385322,141.007812 L4.9385322,135.652344 L7.43462595,135.664062 C10.1143134,135.664062 11.4541572,136.570312 11.4541572,138.382812 C11.4541572,140.140625 10.2979072,141.019531 7.9854072,141.019531 L7.9854072,141.019531 Z M26.9294176,143 L26.9294176,137.585938 C26.9294176,137.1875 26.9723864,136.902344 27.0583239,136.730469 L27.0583239,136.730469 L27.2926989,136.320312 L32.6012926,127.003906 L30.1286364,127.003906 L25.8981676,134.9375 L21.6794176,127.003906 L19.1481676,127.003906 L24.3981676,136.226562 C24.6794176,136.71875 24.8200426,137.152344 24.8200426,137.527344 L24.8200426,137.527344 L24.8200426,143 L26.9294176,143 Z M47.3625189,143 L47.3625189,136.976562 L49.6945502,136.988281 C53.7648627,136.988281 55.8000189,135.316406 55.8000189,131.972656 C55.8000189,130.230469 55.2726752,128.966797 54.2179877,128.181641 C53.1633002,127.396484 51.4679877,127.003906 49.1320502,127.003906 L49.1320502,127.003906 L45.2531439,127.003906 L45.2531439,143 L47.3625189,143 Z M47.3625189,135.007812 L47.3625189,128.984375 L49.6593939,128.984375 C52.3000189,128.984375 53.6203314,130 53.6203314,132.03125 C53.6203314,134.007812 52.2570502,134.996094 49.5304877,134.996094 L49.5304877,134.996094 L47.3625189,135.007812 Z M63.1541856,143 L64.7010606,138.757812 L71.8494981,138.757812 L73.3846544,143 L75.7049669,143 L69.6229356,126.96875 L66.9276231,126.96875 L60.8338731,143 L63.1541856,143 Z M71.1580919,136.941406 L65.3690294,136.941406 L68.2752794,128.539062 L71.1580919,136.941406 Z M88.520071,143 L88.520071,137.585938 C88.520071,137.1875 88.5630398,136.902344 88.6489773,136.730469 L88.6489773,136.730469 L88.8833523,136.320312 L94.191946,127.003906 L91.7192898,127.003906 L87.488821,134.9375 L83.270071,127.003906 L80.738821,127.003906 L85.988821,136.226562 C86.270071,136.71875 86.410696,137.152344 86.410696,137.527344 L86.410696,137.527344 L86.410696,143 L88.520071,143 Z M99.8075616,143 L99.8075616,140.058594 L97.6161553,140.058594 L97.6161553,143 L99.8075616,143 Z M105.497666,146.84375 C108.146103,146.84375 109.470322,145 109.470322,141.3125 L109.470322,141.3125 L109.470322,127.003906 L107.360947,127.003906 L107.360947,140.773438 C107.360947,143.460938 106.540634,144.804688 104.900009,144.804688 L104.900009,144.804688 L104.782822,144.804688 L104.782822,146.796875 C105.032822,146.828125 105.271103,146.84375 105.497666,146.84375 Z M119.43777,143 L119.43777,136.976562 L121.769801,136.988281 C125.840114,136.988281 127.87527,135.316406 127.87527,131.972656 C127.87527,130.230469 127.347926,128.966797 126.293239,128.181641 C125.238551,127.396484 123.543239,127.003906 121.207301,127.003906 L121.207301,127.003906 L117.328395,127.003906 L117.328395,143 L119.43777,143 Z M119.43777,135.007812 L119.43777,128.984375 L121.734645,128.984375 C124.37527,128.984375 125.695582,130 125.695582,132.03125 C125.695582,134.007812 124.332301,134.996094 121.605739,134.996094 L121.605739,134.996094 L119.43777,135.007812 Z" id="BYPAY.JP" fill="#222222"></path>
                </g>
            </g>
        </g>
    </g>
</svg>